<?xml version="1.0" encoding="utf-8"?>
<!-- Generator: Adobe Illustrator 24.0.1, SVG Export Plug-In . SVG Version: 6.00 Build 0)  -->
<svg version="1.1" baseProfile="basic" id="Layer_1"
	 xmlns="http://www.w3.org/2000/svg" xmlns:xlink="http://www.w3.org/1999/xlink" x="0px" y="0px" viewBox="0 0 751 2666"
	 xml:space="preserve">
<rect y="-3.2" fill="#181818" width="751" height="2670.8"/>
<path fill="none" stroke="#303030" stroke-width="2.0018" d="M3,163.8l54.7,98h70.2l249.8,247.6l250.9-247.6h70.3l54.8-98"/>
<path fill="none" stroke="#303030" stroke-width="2.0018" d="M3-3.2l54.7,98h70.2l249.8,247.6L628.6,94.8h70.3l54.8-98"/>
<path fill="none" stroke="#303030" stroke-width="2.0018" d="M3-164.4l54.7,98h70.2l249.8,247.6L628.6-66.4h70.3l54.8-98"/>
<path fill="none" stroke="#303030" stroke-width="2.0018" d="M3-331.7l54.7,98h70.2L377.7,13.9l250.9-247.6h70.3l54.8-98"/>
<path fill="none" stroke="#303030" stroke-width="2.0018" d="M3,330.8l54.7,98h70.2l249.8,247.6l250.9-247.6h70.3l54.8-98"/>
<path fill="none" stroke="#303030" stroke-width="2.0018" d="M3,497.9l54.7,98h70.2l249.8,247.6l250.9-247.6h70.3l54.8-98"/>
<path fill="none" stroke="#303030" stroke-width="2.0018" d="M3,664.9l54.7,98h70.2l249.8,247.6L628.6,763h70.3l54.8-98"/>
<path fill="none" stroke="#303030" stroke-width="2.0018" d="M3,832l54.7,98h70.2l249.8,247.6L628.6,930h70.3l54.8-98"/>
<path fill="none" stroke="#303030" stroke-width="2.0018" d="M3,999l54.7,98h70.2l249.8,247.6L628.6,1097h70.3l54.8-98"/>
<path fill="none" stroke="#303030" stroke-width="2.0018" d="M3,1166.1l54.7,98h70.2l249.8,247.6l250.9-247.6h70.3l54.8-98"/>
<path fill="none" stroke="#303030" stroke-width="2.0018" d="M3,1333.1l54.7,98h70.2l249.8,247.6l250.9-247.6h70.3l54.8-98"/>
<path fill="none" stroke="#303030" stroke-width="2.0018" d="M3,1500.2l54.7,98h70.2l249.8,247.6l250.9-247.6h70.3l54.8-98"/>
<path fill="none" stroke="#303030" stroke-width="2.0018" d="M3,1667.2l54.7,98h70.2l249.8,247.6l250.9-247.6h70.3l54.8-98"/>
<path fill="none" stroke="#303030" stroke-width="2.0018" d="M3,1834.3l54.7,98h70.2l249.8,247.6l250.9-247.6h70.3l54.8-98"/>
<path fill="none" stroke="#303030" stroke-width="2.0018" d="M3,2001.3l54.7,98h70.2l249.8,247.6l250.9-247.6h70.3l54.8-98"/>
<path fill="none" stroke="#303030" stroke-width="2.0018" d="M3,2168.4l54.7,98h70.2L377.7,2514l250.9-247.6h70.3l54.8-98"/>
<path fill="none" stroke="#303030" stroke-width="2.0018" d="M3,2335.4l54.7,98h70.2L377.7,2681l250.9-247.6h70.3l54.8-98"/>
<path fill="none" stroke="#303030" stroke-width="2.0018" d="M3,2502.5l54.7,98h70.2l68.2,67.6h364l68.5-67.6h70.3l54.8-98"/>
<rect y="-3.2" display="none" fill="#7D7D7D" width="751" height="2670.4"/>
</svg>
