<svg width="573" height="4205" viewBox="0 0 573 4205" fill="none" xmlns="http://www.w3.org/2000/svg">
<mask id="mask0" mask-type="alpha" maskUnits="userSpaceOnUse" x="0" y="0" width="573" height="4205">
<rect width="573" height="4205" fill="#7D7D7D"/>
</mask>
<g mask="url(#mask0)">
<rect width="573" height="6010" fill="#181818"/>
<path d="M-3 2100L38.771 2176.86H92.3362L283 2371L474.497 2176.86H528.156L570 2100" stroke="#303030" stroke-width="2"/>
<path d="M2 1969L43.771 2045.86H97.3362L288 2240L479.497 2045.86H533.156L575 1969" stroke="#303030" stroke-width="2"/>
<path d="M-3 2231L38.771 2307.86H92.3362L283 2502L474.497 2307.86H528.156L570 2231" stroke="#303030" stroke-width="2"/>
<path d="M-3 2362L38.771 2438.86H92.3362L283 2633L474.497 2438.86H528.156L570 2362" stroke="#303030" stroke-width="2"/>
<path d="M-3 2493L38.771 2569.86H92.3362L283 2764L474.497 2569.86H528.156L570 2493" stroke="#303030" stroke-width="2"/>
<path d="M-3 2624L38.771 2700.86H92.3362L283 2895L474.497 2700.86H528.156L570 2624" stroke="#303030" stroke-width="2"/>
<path d="M-3 2755L38.771 2831.86H92.3362L283 3026L474.497 2831.86H528.156L570 2755" stroke="#303030" stroke-width="2"/>
<path d="M-3 2886L38.771 2962.86H92.3362L283 3157L474.497 2962.86H528.156L570 2886" stroke="#303030" stroke-width="2"/>
<path d="M-3 3017L38.771 3093.86H92.3362L283 3288L474.497 3093.86H528.156L570 3017" stroke="#303030" stroke-width="2"/>
<path d="M-3 3148L38.771 3224.86H92.3362L283 3419L474.497 3224.86H528.156L570 3148" stroke="#303030" stroke-width="2"/>
<path d="M-3 3279L38.771 3355.86H92.3362L283 3550L474.497 3355.86H528.156L570 3279" stroke="#303030" stroke-width="2"/>
<path d="M-3 3410L38.771 3486.86H92.3362L283 3681L474.497 3486.86H528.156L570 3410" stroke="#303030" stroke-width="2"/>
<path d="M-3 3541L38.771 3617.86H92.3362L283 3812L474.497 3617.86H528.156L570 3541" stroke="#303030" stroke-width="2"/>
<path d="M-3 3672L38.771 3748.86H92.3362L283 3943L474.497 3748.86H528.156L570 3672" stroke="#303030" stroke-width="2"/>
<path d="M-3 3803L38.771 3879.86H92.3362L283 4074L474.497 3879.86H528.156L570 3803" stroke="#303030" stroke-width="2"/>
<path d="M-3 3934L38.771 4010.86H92.3362L283 4205L474.497 4010.86H528.156L570 3934" stroke="#303030" stroke-width="2"/>
<path d="M-2 4192L39.771 4268.86H93.3362L284 4463L475.497 4268.86H529.156L571 4192" stroke="#303030" stroke-width="2"/>
<path d="M3 4061L44.771 4137.86H98.3362L289 4332L480.497 4137.86H534.156L576 4061" stroke="#303030" stroke-width="2"/>
<path d="M0 -5L41.771 71.8582H95.3362L286 266L477.497 71.8582H531.156L573 -5" stroke="#303030" stroke-width="2"/>
<path d="M5 -136L46.771 -59.1418H100.336L291 135L482.497 -59.1418H536.156L578 -136" stroke="#303030" stroke-width="2"/>
<path d="M0 126L41.771 202.858H95.3362L286 397L477.497 202.858H531.156L573 126" stroke="#303030" stroke-width="2"/>
<path d="M0 257L41.771 333.858H95.3362L286 528L477.497 333.858H531.156L573 257" stroke="#303030" stroke-width="2"/>
<path d="M0 388L41.771 464.858H95.3362L286 659L477.497 464.858H531.156L573 388" stroke="#303030" stroke-width="2"/>
<path d="M0 519L41.771 595.858H95.3362L286 790L477.497 595.858H531.156L573 519" stroke="#303030" stroke-width="2"/>
<path d="M0 650L41.771 726.858H95.3362L286 921L477.497 726.858H531.156L573 650" stroke="#303030" stroke-width="2"/>
<path d="M0 781L41.771 857.858H95.3362L286 1052L477.497 857.858H531.156L573 781" stroke="#303030" stroke-width="2"/>
<path d="M0 912L41.771 988.858H95.3362L286 1183L477.497 988.858H531.156L573 912" stroke="#303030" stroke-width="2"/>
<path d="M0 1043L41.771 1119.86H95.3362L286 1314L477.497 1119.86H531.156L573 1043" stroke="#303030" stroke-width="2"/>
<path d="M0 1174L41.771 1250.86H95.3362L286 1445L477.497 1250.86H531.156L573 1174" stroke="#303030" stroke-width="2"/>
<path d="M0 1305L41.771 1381.86H95.3362L286 1576L477.497 1381.86H531.156L573 1305" stroke="#303030" stroke-width="2"/>
<path d="M0 1436L41.771 1512.86H95.3362L286 1707L477.497 1512.86H531.156L573 1436" stroke="#303030" stroke-width="2"/>
<path d="M0 1567L41.771 1643.86H95.3362L286 1838L477.497 1643.86H531.156L573 1567" stroke="#303030" stroke-width="2"/>
<path d="M0 1698L41.771 1774.86H95.3362L286 1969L477.497 1774.86H531.156L573 1698" stroke="#303030" stroke-width="2"/>
<path d="M0 1829L41.771 1905.86H95.3362L286 2100L477.497 1905.86H531.156L573 1829" stroke="#303030" stroke-width="2"/>
</g>
</svg>
