<?xml version="1.0" encoding="utf-8"?>
<!-- Generator: Adobe Illustrator 24.0.1, SVG Export Plug-In . SVG Version: 6.00 Build 0)  -->
<svg version="1.1" id="Layer_1" xmlns="http://www.w3.org/2000/svg" xmlns:xlink="http://www.w3.org/1999/xlink" x="0px" y="0px"
	 viewBox="0 0 1280 1794" style="enable-background:new 0 0 1280 1794;" xml:space="preserve">
<style type="text/css">
	.st0{opacity:0.23;fill:url(#SVGID_1_);enable-background:new    ;}
	.st1{opacity:0.23;fill:url(#SVGID_2_);enable-background:new    ;}
	.st2{fill:#FFFFFF;}
	.st3{fill:#9AFF8A;}
</style>
<linearGradient id="SVGID_1_" gradientUnits="userSpaceOnUse" x1="641.5" y1="336" x2="641.5" y2="9.094947e-13" gradientTransform="matrix(1 0 0 -1 0 1794)">
	<stop  offset="0" style="stop-color:#FFFFFF"/>
	<stop  offset="1" style="stop-color:#FFFFFF;stop-opacity:0"/>
</linearGradient>
<path class="st0" d="M-316,1794l421.8-321.1l-12.2-6.4l12.2-8.5h1160.8l332.4,336H-316z"/>
<linearGradient id="SVGID_2_" gradientUnits="userSpaceOnUse" x1="641.5" y1="336" x2="641.5" y2="1794" gradientTransform="matrix(1 0 0 -1 0 1794)">
	<stop  offset="0" style="stop-color:#FFFFFF"/>
	<stop  offset="1" style="stop-color:#FFFFFF;stop-opacity:0"/>
</linearGradient>
<path class="st1" d="M-316,0l421.8,1393.3L93.6,1421l12.2,37h1160.8L1599,0H-316z"/>
<path class="st2" d="M927,1232.8v200.1c-13.1-34.4-46.5-58.9-85.5-58.9h-396c-47.7,0-86.8,36.5-91.1,83H354v-207.8L0,899v558v16v84
	h445.5h396H1280v-100V882L927,1232.8z"/>
<path d="M645.1,1426.7h3.4v-2.3h-4v-1.4h5.7v8.5h-5.7v-1.4h3.9v-2h-3.4V1426.7z M640.4,1428.6l-1.6,2.9h-2l2.5-4.2l-2.5-4.3h2l1.6,3
	l1.6-3h2l-2.5,4.3l2.5,4.2h-2L640.4,1428.6z M634,1423h1.8v8.5H634V1423z M626.1,1430.1h2.6v-7.1h1.8v7.1h2.6v1.4h-7V1430.1z"/>
<path class="st3" d="M620.5,1392h36c6.4,0,11.5,5.1,11.5,11.5l0,0c0,6.4-5.1,11.5-11.5,11.5h-36c-6.4,0-11.5-5.1-11.5-11.5l0,0
	C609,1397.1,614.1,1392,620.5,1392z"/>
</svg>
