<svg xmlns="http://www.w3.org/2000/svg" xmlns:xlink="http://www.w3.org/1999/xlink" viewBox="0 0 5669.29 5547.49"><defs><style>.cls-1{opacity:0.23;isolation:isolate;fill:url(#linear-gradient);}.cls-2{fill:#fff;}.cls-3{fill:#9aff8a;}</style><linearGradient id="linear-gradient" x1="10833.24" y1="2379.73" x2="10833.24" y2="-2822.88" gradientTransform="matrix(-1, 0, 0, 1, 13667.8, 2822.88)" gradientUnits="userSpaceOnUse"><stop offset="0" stop-color="#fff"/><stop offset="1" stop-color="#fff" stop-opacity="0"/></linearGradient></defs><title>Asset 1</title><g id="Layer_2" data-name="Layer 2"><g id="Layer_1-2" data-name="Layer 1"><rect class="cls-1" width="5669.12" height="5202.61"/><path class="cls-2" d="M4105.84,4141.84v867.41C4047.62,4860,3900.05,4754,3727.15,4754H1973.22c-211.13,0-384.51,158.07-403.51,359.89H1568v-901L.06,2694.49v2853H5669.29V2620.78Z"/><path d="M2806.93,4980.51h-11.41v7.74h13.39V4993h-19.33v-28.84h19.29v4.8h-13.35v6.9h11.41Zm15.79-6.39,5.4-9.94H2835l-8.4,14.3,8.62,14.54h-6.92l-5.54-10.11-5.55,10.11h-6.91l8.61-14.54-8.4-14.3h6.84Zm21.78,18.9h-5.94v-28.84h5.94Zm26.65-24h-8.84v24h-5.94v-24h-8.72v-4.8h23.5Z"/><rect class="cls-3" x="2697.38" y="4832.07" width="261.32" height="99.72" rx="49.86"/></g></g></svg>