<svg width="272" height="345" viewBox="0 0 272 345" fill="none" xmlns="http://www.w3.org/2000/svg">
<rect x="272" y="345" width="305" height="345" rx="15" transform="rotate(180 272 345)" fill="#484848"/>
<rect x="159" y="40" width="259" height="39" rx="9" transform="rotate(90 159 40)" fill="black" stroke="white" stroke-width="2"/>
<rect x="248" y="190" width="109" height="62" rx="9" transform="rotate(90 248 190)" fill="black" stroke="white" stroke-width="2"/>
<rect x="62" y="304" width="115" height="263" rx="10" transform="rotate(180 62 304)" fill="black"/>
<rect x="94.2234" y="300" width="12.222" height="74.5543" transform="rotate(180 94.2234 300)" fill="#2F2F2F"/>
<rect x="94.222" y="296.944" width="12.222" height="1.8333" transform="rotate(180 94.222 296.944)" fill="#9F9F9F"/>
<rect x="94.222" y="292.667" width="12.222" height="1.8333" transform="rotate(180 94.222 292.667)" fill="#9F9F9F"/>
<rect x="94.2234" y="288.389" width="12.222" height="1.8333" transform="rotate(180 94.2234 288.389)" fill="#9F9F9F"/>
<rect x="94.2234" y="284.111" width="12.222" height="1.8333" transform="rotate(180 94.2234 284.111)" fill="#9F9F9F"/>
<rect x="94.222" y="279.834" width="12.222" height="1.8333" transform="rotate(180 94.222 279.834)" fill="#9F9F9F"/>
<rect x="94.222" y="275.556" width="12.222" height="1.8333" transform="rotate(180 94.222 275.556)" fill="#9F9F9F"/>
<rect x="94.2234" y="271.278" width="12.222" height="1.8333" transform="rotate(180 94.2234 271.278)" fill="#9F9F9F"/>
<rect x="94.222" y="267.001" width="12.222" height="1.8333" transform="rotate(180 94.222 267.001)" fill="#9F9F9F"/>
<rect x="94.222" y="262.723" width="12.222" height="1.8333" transform="rotate(180 94.222 262.723)" fill="#9F9F9F"/>
<rect x="94.222" y="258.445" width="12.222" height="1.8333" transform="rotate(180 94.222 258.445)" fill="#9F9F9F"/>
<rect x="94.2234" y="254.168" width="12.222" height="1.8333" transform="rotate(180 94.2234 254.168)" fill="#9F9F9F"/>
<rect x="94.222" y="249.89" width="12.222" height="1.8333" transform="rotate(180 94.222 249.89)" fill="#9F9F9F"/>
<rect x="94.222" y="245.612" width="12.222" height="1.8333" transform="rotate(180 94.222 245.612)" fill="#9F9F9F"/>
<rect x="94.2234" y="241.335" width="12.222" height="1.8333" transform="rotate(180 94.2234 241.335)" fill="#9F9F9F"/>
<rect x="94.2234" y="237.057" width="12.222" height="1.8333" transform="rotate(180 94.2234 237.057)" fill="#9F9F9F"/>
<rect x="94.222" y="232.779" width="12.222" height="1.8333" transform="rotate(180 94.222 232.779)" fill="#9F9F9F"/>
<rect x="94.222" y="228.502" width="12.222" height="1.8333" transform="rotate(180 94.222 228.502)" fill="#9F9F9F"/>
<rect x="94.2234" y="184.555" width="12.222" height="74.5543" transform="rotate(180 94.2234 184.555)" fill="#2F2F2F"/>
<rect x="94.2222" y="181.499" width="12.222" height="1.8333" transform="rotate(180 94.2222 181.499)" fill="#9F9F9F"/>
<rect x="94.2222" y="177.221" width="12.222" height="1.8333" transform="rotate(180 94.2222 177.221)" fill="#9F9F9F"/>
<rect x="94.2234" y="172.943" width="12.222" height="1.8333" transform="rotate(180 94.2234 172.943)" fill="#9F9F9F"/>
<rect x="94.2234" y="168.665" width="12.222" height="1.8333" transform="rotate(180 94.2234 168.665)" fill="#9F9F9F"/>
<rect x="94.2222" y="164.388" width="12.222" height="1.8333" transform="rotate(180 94.2222 164.388)" fill="#9F9F9F"/>
<rect x="94.2222" y="160.11" width="12.222" height="1.8333" transform="rotate(180 94.2222 160.11)" fill="#9F9F9F"/>
<rect x="94.2234" y="155.832" width="12.222" height="1.8333" transform="rotate(180 94.2234 155.832)" fill="#9F9F9F"/>
<rect x="94.2222" y="151.555" width="12.222" height="1.8333" transform="rotate(180 94.2222 151.555)" fill="#9F9F9F"/>
<rect x="94.2222" y="147.277" width="12.222" height="1.8333" transform="rotate(180 94.2222 147.277)" fill="#9F9F9F"/>
<rect x="94.2222" y="142.999" width="12.222" height="1.8333" transform="rotate(180 94.2222 142.999)" fill="#9F9F9F"/>
<rect x="94.2234" y="138.722" width="12.222" height="1.8333" transform="rotate(180 94.2234 138.722)" fill="#9F9F9F"/>
<rect x="94.2222" y="134.444" width="12.222" height="1.8333" transform="rotate(180 94.2222 134.444)" fill="#9F9F9F"/>
<rect x="94.2222" y="130.166" width="12.222" height="1.8333" transform="rotate(180 94.2222 130.166)" fill="#9F9F9F"/>
<rect x="94.2234" y="125.889" width="12.222" height="1.8333" transform="rotate(180 94.2234 125.889)" fill="#9F9F9F"/>
<rect x="94.2234" y="121.61" width="12.222" height="1.8333" transform="rotate(180 94.2234 121.61)" fill="#9F9F9F"/>
<rect x="94.2222" y="117.333" width="12.222" height="1.8333" transform="rotate(180 94.2222 117.333)" fill="#9F9F9F"/>
<rect x="94.2222" y="113.056" width="12.222" height="1.8333" transform="rotate(180 94.2222 113.056)" fill="#9F9F9F"/>
</svg>
