<svg width="2500" height="2000" viewBox="0 0 2500 2000" fill="none" xmlns="http://www.w3.org/2000/svg">
<g clip-path="url(#clip0)">
<rect width="2500" height="2000" fill="black"/>
<circle cx="244.5" cy="1000.5" r="10.5" fill="white"/>
<circle cx="610.5" cy="1317.5" r="10.5" fill="white"/>
<circle cx="1780.53" cy="1392.25" r="10.5" transform="rotate(-150 1780.53 1392.25)" fill="white"/>
<circle cx="2365.53" cy="913.247" r="10.5" transform="rotate(-150 2365.53 913.247)" fill="white"/>
<circle cx="667.53" cy="700.247" r="10.5" transform="rotate(-150 667.53 700.247)" fill="white"/>
<circle cx="868.53" cy="85.2466" r="10.5" transform="rotate(-150 868.53 85.2466)" fill="white"/>
<circle cx="1984.53" cy="1077.25" r="10.5" transform="rotate(-150 1984.53 1077.25)" fill="white"/>
<circle cx="1330.53" cy="1621.25" r="10.5" transform="rotate(-150 1330.53 1621.25)" fill="white"/>
<circle cx="660.53" cy="1578.25" r="10.5" transform="rotate(-150 660.53 1578.25)" fill="white"/>
<circle cx="922.5" cy="1092.5" r="10.5" fill="white"/>
<circle cx="1150.5" cy="408.5" r="10.5" fill="white"/>
<circle cx="1889.32" cy="203.081" r="10.5" transform="rotate(105 1889.32 203.081)" fill="white"/>
<circle cx="1331.86" cy="567.595" r="10.5" transform="rotate(105 1331.86 567.595)" fill="white"/>
<circle cx="112.86" cy="310.86" r="10.5" transform="rotate(105 112.86 310.86)" fill="white"/>
<circle cx="1830.86" cy="1829.59" r="10.5" transform="rotate(105 1830.86 1829.59)" fill="white"/>
<circle cx="610.5" cy="1021.5" r="10.5" fill="white"/>
<circle cx="811.5" cy="406.5" r="10.5" fill="white"/>
<circle cx="1927.5" cy="1398.5" r="10.5" fill="white"/>
<circle cx="1273.5" cy="1942.5" r="10.5" fill="white"/>
<circle cx="603.5" cy="1899.5" r="10.5" fill="white"/>
<circle cx="865.5" cy="646.5" r="10.5" fill="white"/>
<circle cx="1066.5" cy="31.5" r="10.5" fill="white"/>
<circle cx="2182.5" cy="1023.5" r="10.5" fill="white"/>
<circle cx="1528.5" cy="1567.5" r="10.5" fill="white"/>
<circle cx="858.5" cy="1524.5" r="10.5" fill="white"/>
<circle cx="2334.87" cy="263.457" r="10.5" transform="rotate(105 2334.87 263.457)" fill="white"/>
<circle cx="1777.42" cy="627.971" r="10.5" transform="rotate(105 1777.42 627.971)" fill="white"/>
<circle cx="471.415" cy="289.971" r="10.5" transform="rotate(105 471.415 289.971)" fill="white"/>
<circle cx="2276.42" cy="1889.97" r="10.5" transform="rotate(105 2276.42 1889.97)" fill="white"/>
<circle cx="2099.83" cy="1665.97" r="10.5" transform="rotate(105 2099.83 1665.97)" fill="white"/>
<circle cx="1134.83" cy="1870.97" r="10.5" transform="rotate(105 1134.83 1870.97)" fill="white"/>
<circle cx="176.5" cy="1379.5" r="10.5" fill="white"/>
<circle cx="1171.5" cy="1000.5" r="10.5" fill="white"/>
<circle cx="1399.5" cy="316.5" r="10.5" fill="white"/>
<circle cx="1913.74" cy="467.408" r="10.5" transform="rotate(105 1913.74 467.408)" fill="white"/>
<circle cx="607.736" cy="129.408" r="10.5" transform="rotate(105 607.736 129.408)" fill="white"/>
<circle cx="2412.74" cy="1729.41" r="10.5" transform="rotate(105 2412.74 1729.41)" fill="white"/>
<circle cx="2236.15" cy="1505.41" r="10.5" transform="rotate(105 2236.15 1505.41)" fill="white"/>
<circle cx="1271.15" cy="1710.41" r="10.5" transform="rotate(105 1271.15 1710.41)" fill="white"/>
<circle cx="1356.28" cy="831.922" r="10.5" transform="rotate(105 1356.28 831.922)" fill="white"/>
<circle cx="1584.28" cy="147.922" r="10.5" transform="rotate(105 1584.28 147.922)" fill="white"/>
<circle cx="501.5" cy="682.5" r="10.5" fill="white"/>
<circle cx="702.5" cy="67.5" r="10.5" fill="white"/>
<circle cx="1818.5" cy="1059.5" r="10.5" fill="white"/>
<circle cx="1164.5" cy="1603.5" r="10.5" fill="white"/>
<circle cx="494.5" cy="1560.5" r="10.5" fill="white"/>
<circle cx="764.5" cy="907.5" r="10.5" fill="white"/>
<circle cx="965.5" cy="292.5" r="10.5" fill="white"/>
<circle cx="2081.5" cy="1284.5" r="10.5" fill="white"/>
<circle cx="1427.5" cy="1828.5" r="10.5" fill="white"/>
<circle cx="757.5" cy="1785.5" r="10.5" fill="white"/>
<circle cx="2108.91" cy="98.3465" r="10.5" transform="rotate(105 2108.91 98.3465)" fill="white"/>
<circle cx="1551.45" cy="462.86" r="10.5" transform="rotate(105 1551.45 462.86)" fill="white"/>
<circle cx="245.45" cy="124.86" r="10.5" transform="rotate(105 245.45 124.86)" fill="white"/>
<circle cx="2050.45" cy="1724.86" r="10.5" transform="rotate(105 2050.45 1724.86)" fill="white"/>
<circle cx="1873.86" cy="1500.86" r="10.5" transform="rotate(105 1873.86 1500.86)" fill="white"/>
<circle cx="908.86" cy="1705.86" r="10.5" transform="rotate(105 908.86 1705.86)" fill="white"/>
<circle cx="1019.5" cy="532.5" r="10.5" fill="white"/>
<circle cx="2405.13" cy="441.715" r="10.5" transform="rotate(105 2405.13 441.715)" fill="white"/>
<circle cx="1847.67" cy="806.228" r="10.5" transform="rotate(105 1847.67 806.228)" fill="white"/>
<circle cx="94.5" cy="589.5" r="10.5" fill="white"/>
<circle cx="876" cy="1463" r="5" fill="white"/>
<circle cx="452.164" cy="1787.7" r="5" transform="rotate(-150 452.164 1787.7)" fill="white"/>
<circle cx="1623.35" cy="1133.49" r="5" transform="rotate(-150 1623.35 1133.49)" fill="white"/>
<circle cx="1851.35" cy="449.49" r="5" transform="rotate(-150 1851.35 449.49)" fill="white"/>
<circle cx="2208.35" cy="654.49" r="5" transform="rotate(-150 2208.35 654.49)" fill="white"/>
<circle cx="510.351" cy="441.49" r="5" transform="rotate(-150 510.351 441.49)" fill="white"/>
<circle cx="359" cy="1165" r="5" fill="white"/>
<circle cx="359" cy="804" r="5" fill="white"/>
<circle cx="161" cy="897" r="5" fill="white"/>
<circle cx="1067" cy="1323" r="5" fill="white"/>
<circle cx="216.753" cy="1813.44" r="5" transform="rotate(-150 216.753 1813.44)" fill="white"/>
<circle cx="1387.94" cy="1159.23" r="5" transform="rotate(-150 1387.94 1159.23)" fill="white"/>
<circle cx="1615.94" cy="475.233" r="5" transform="rotate(-150 1615.94 475.233)" fill="white"/>
<circle cx="1972.94" cy="680.233" r="5" transform="rotate(-150 1972.94 680.233)" fill="white"/>
<circle cx="274.94" cy="467.233" r="5" transform="rotate(-150 274.94 467.233)" fill="white"/>
<circle cx="1208" cy="1473" r="5" fill="white"/>
<circle cx="169.643" cy="1613.04" r="5" transform="rotate(-150 169.643 1613.04)" fill="white"/>
<circle cx="1340.83" cy="958.83" r="5" transform="rotate(-150 1340.83 958.83)" fill="white"/>
<circle cx="1568.83" cy="274.83" r="5" transform="rotate(-150 1568.83 274.83)" fill="white"/>
<circle cx="227.83" cy="266.83" r="5" transform="rotate(-150 227.83 266.83)" fill="white"/>
<circle cx="1077" cy="918" r="5" fill="white"/>
<circle cx="1305" cy="234" r="5" fill="white"/>
<circle cx="2017.88" cy="397.481" r="5" transform="rotate(105 2017.88 397.481)" fill="white"/>
<circle cx="1460.43" cy="761.995" r="5" transform="rotate(105 1460.43 761.995)" fill="white"/>
<circle cx="1688.43" cy="77.9945" r="5" transform="rotate(105 1688.43 77.9945)" fill="white"/>
<circle cx="407" cy="600" r="5" fill="white"/>
<circle cx="1020" cy="923" r="5" fill="white"/>
<circle cx="1248" cy="239" r="5" fill="white"/>
<circle cx="2027.81" cy="341.128" r="5" transform="rotate(105 2027.81 341.128)" fill="white"/>
<circle cx="1470.35" cy="705.642" r="5" transform="rotate(105 1470.35 705.642)" fill="white"/>
<circle cx="1698.35" cy="21.642" r="5" transform="rotate(105 1698.35 21.642)" fill="white"/>
<circle cx="350" cy="605" r="5" fill="white"/>
<circle cx="1030" cy="985" r="5" fill="white"/>
<circle cx="1258" cy="301" r="5" fill="white"/>
<circle cx="1965.33" cy="334.742" r="5" transform="rotate(105 1965.33 334.742)" fill="white"/>
<circle cx="1407.87" cy="699.255" r="5" transform="rotate(105 1407.87 699.255)" fill="white"/>
<circle cx="1635.87" cy="15.2553" r="5" transform="rotate(105 1635.87 15.2553)" fill="white"/>
<circle cx="360" cy="667" r="5" fill="white"/>
</g>
<defs>
<clipPath id="clip0">
<rect width="2500" height="2000" fill="white"/>
</clipPath>
</defs>
</svg>
