<svg width="2500" height="2000" viewBox="0 0 2500 2000" fill="none" xmlns="http://www.w3.org/2000/svg">
<g clip-path="url(#clip0)">
<rect width="2500" height="2000" fill="black"/>
<circle cx="2234.05" cy="1420.73" r="7.57415" transform="rotate(-105 2234.05 1420.73)" fill="white"/>
<circle cx="746.053" cy="1465.73" r="7.57415" transform="rotate(-105 746.053 1465.73)" fill="white"/>
<circle cx="2386.6" cy="1106.53" r="7.57415" transform="rotate(-105 2386.6 1106.53)" fill="white"/>
<circle cx="898.597" cy="1151.53" r="7.57415" transform="rotate(-105 898.597 1151.53)" fill="white"/>
<circle cx="2153.6" cy="1958.53" r="7.57415" transform="rotate(-105 2153.6 1958.53)" fill="white"/>
<circle cx="1406.72" cy="1016.24" r="7.57415" transform="rotate(105 1406.72 1016.24)" fill="white"/>
<circle cx="2220.24" cy="277.33" r="7.57415" transform="rotate(105 2220.24 277.33)" fill="white"/>
<circle cx="732.235" cy="322.33" r="7.57415" transform="rotate(105 732.235 322.33)" fill="white"/>
<circle cx="1241.24" cy="1522.33" r="7.57415" transform="rotate(105 1241.24 1522.33)" fill="white"/>
<circle cx="1987.24" cy="1129.33" r="7.57415" transform="rotate(105 1987.24 1129.33)" fill="white"/>
<circle cx="289.264" cy="4.14968" r="7.57415" transform="rotate(105 289.264 4.14968)" fill="white"/>
<circle cx="798.264" cy="1204.15" r="7.57415" transform="rotate(105 798.264 1204.15)" fill="white"/>
<circle cx="1544.26" cy="811.149" r="7.57415" transform="rotate(105 1544.26 811.149)" fill="white"/>
<circle cx="1945.87" cy="1182.03" r="7.57415" transform="rotate(105 1945.87 1182.03)" fill="white"/>
<circle cx="457.867" cy="1227.03" r="7.57415" transform="rotate(105 457.867 1227.03)" fill="white"/>
<circle cx="1479.83" cy="1156.8" r="7.57415" transform="rotate(105 1479.83 1156.8)" fill="white"/>
<circle cx="-8.17228" cy="1201.8" r="7.57415" transform="rotate(105 -8.17228 1201.8)" fill="white"/>
<circle cx="1246.83" cy="2008.8" r="7.57415" transform="rotate(105 1246.83 2008.8)" fill="white"/>
<circle cx="1962.67" cy="194" r="7.57415" transform="rotate(105 1962.67 194)" fill="white"/>
<circle cx="474.666" cy="239" r="7.57415" transform="rotate(105 474.666 239)" fill="white"/>
<circle cx="983.666" cy="1439" r="7.57415" transform="rotate(105 983.666 1439)" fill="white"/>
<circle cx="1729.67" cy="1046" r="7.57415" transform="rotate(105 1729.67 1046)" fill="white"/>
<circle cx="2463.81" cy="548.123" r="7.57415" transform="rotate(105 2463.81 548.123)" fill="white"/>
<circle cx="975.81" cy="593.123" r="7.57415" transform="rotate(105 975.81 593.123)" fill="white"/>
<circle cx="1484.81" cy="1793.12" r="7.57415" transform="rotate(105 1484.81 1793.12)" fill="white"/>
<circle cx="2230.81" cy="1400.12" r="7.57415" transform="rotate(105 2230.81 1400.12)" fill="white"/>
<circle cx="1070.94" cy="1067.98" r="7.57415" transform="rotate(105 1070.94 1067.98)" fill="white"/>
<circle cx="2325.94" cy="1874.98" r="7.57415" transform="rotate(105 2325.94 1874.98)" fill="white"/>
<circle cx="2171.57" cy="931.142" r="7.57415" transform="rotate(-105 2171.57 931.142)" fill="white"/>
<circle cx="683.574" cy="976.142" r="7.57415" transform="rotate(-105 683.574 976.142)" fill="white"/>
<circle cx="1938.57" cy="1783.14" r="7.57415" transform="rotate(-105 1938.57 1783.14)" fill="white"/>
<circle cx="1652.42" cy="899.981" r="7.57415" transform="rotate(-105 1652.42 899.981)" fill="white"/>
<circle cx="164.417" cy="944.981" r="7.57415" transform="rotate(-105 164.417 944.981)" fill="white"/>
<circle cx="1419.42" cy="1751.98" r="7.57415" transform="rotate(-105 1419.42 1751.98)" fill="white"/>
<circle cx="1371.5" cy="423.5" r="7.5" fill="white"/>
<circle cx="392.5" cy="1668.5" r="7.5" fill="white"/>
<circle cx="1138.5" cy="1275.5" r="7.5" fill="white"/>
<circle cx="1729.5" cy="743.5" r="7.5" fill="white"/>
<circle cx="241.5" cy="788.5" r="7.5" fill="white"/>
<circle cx="750.5" cy="1988.5" r="7.5" fill="white"/>
<circle cx="1496.5" cy="1595.5" r="7.5" fill="white"/>
<circle cx="1778.5" cy="1641.5" r="7.5" fill="white"/>
<circle cx="290.5" cy="1686.5" r="7.5" fill="white"/>
<circle cx="1027.5" cy="205.5" r="7.5" fill="white"/>
<circle cx="1536.5" cy="1405.5" r="7.5" fill="white"/>
<circle cx="2282.5" cy="1012.5" r="7.5" fill="white"/>
<circle cx="2180.35" cy="1161.79" r="7.57415" transform="rotate(-105 2180.35 1161.79)" fill="white"/>
<circle cx="692.354" cy="1206.79" r="7.57415" transform="rotate(-105 692.354 1206.79)" fill="white"/>
<circle cx="1714.31" cy="1136.56" r="7.57415" transform="rotate(-105 1714.31 1136.56)" fill="white"/>
<circle cx="226.314" cy="1181.56" r="7.57415" transform="rotate(-105 226.314 1181.56)" fill="white"/>
<circle cx="1481.31" cy="1988.56" r="7.57415" transform="rotate(-105 1481.31 1988.56)" fill="white"/>
<circle cx="2197.15" cy="173.76" r="7.57415" transform="rotate(-105 2197.15 173.76)" fill="white"/>
<circle cx="709.153" cy="218.76" r="7.57415" transform="rotate(-105 709.153 218.76)" fill="white"/>
<circle cx="1218.15" cy="1418.76" r="7.57415" transform="rotate(-105 1218.15 1418.76)" fill="white"/>
<circle cx="1964.15" cy="1025.76" r="7.57415" transform="rotate(-105 1964.15 1025.76)" fill="white"/>
<circle cx="1210.3" cy="572.882" r="7.57415" transform="rotate(-105 1210.3 572.882)" fill="white"/>
<circle cx="1719.3" cy="1772.88" r="7.57415" transform="rotate(-105 1719.3 1772.88)" fill="white"/>
<circle cx="2465.3" cy="1379.88" r="7.57415" transform="rotate(-105 2465.3 1379.88)" fill="white"/>
<circle cx="1305.42" cy="1047.75" r="7.57415" transform="rotate(-105 1305.42 1047.75)" fill="white"/>
<circle cx="1871.46" cy="1054.13" r="7.57415" transform="rotate(-105 1871.46 1054.13)" fill="white"/>
<circle cx="383.457" cy="1099.13" r="7.57415" transform="rotate(-105 383.457 1099.13)" fill="white"/>
<circle cx="1638.46" cy="1906.13" r="7.57415" transform="rotate(-105 1638.46 1906.13)" fill="white"/>
<circle cx="1405.42" cy="1028.9" r="7.57415" transform="rotate(-105 1405.42 1028.9)" fill="white"/>
<circle cx="1172.42" cy="1880.9" r="7.57415" transform="rotate(-105 1172.42 1880.9)" fill="white"/>
<circle cx="1888.26" cy="66.0957" r="7.57415" transform="rotate(-105 1888.26 66.0957)" fill="white"/>
<circle cx="400.257" cy="111.096" r="7.57415" transform="rotate(-105 400.257 111.096)" fill="white"/>
<circle cx="909.257" cy="1311.09" r="7.57415" transform="rotate(-105 909.257 1311.09)" fill="white"/>
<circle cx="1655.26" cy="918.095" r="7.57415" transform="rotate(-105 1655.26 918.095)" fill="white"/>
<circle cx="2389.4" cy="420.218" r="7.57415" transform="rotate(-105 2389.4 420.218)" fill="white"/>
<circle cx="901.4" cy="465.218" r="7.57415" transform="rotate(-105 901.4 465.218)" fill="white"/>
<circle cx="1410.4" cy="1665.22" r="7.57415" transform="rotate(-105 1410.4 1665.22)" fill="white"/>
<circle cx="2156.4" cy="1272.22" r="7.57415" transform="rotate(-105 2156.4 1272.22)" fill="white"/>
<circle cx="2484.53" cy="895.081" r="7.57415" transform="rotate(-105 2484.53 895.081)" fill="white"/>
<circle cx="996.527" cy="940.081" r="7.57415" transform="rotate(-105 996.527 940.081)" fill="white"/>
<circle cx="2251.53" cy="1747.08" r="7.57415" transform="rotate(-105 2251.53 1747.08)" fill="white"/>
<circle cx="1330.5" cy="101.5" r="7.5" fill="white"/>
<circle cx="351.5" cy="1346.5" r="7.5" fill="white"/>
<circle cx="1097.5" cy="953.5" r="7.5" fill="white"/>
<circle cx="1688.5" cy="422.5" r="7.5" fill="white"/>
<circle cx="200.5" cy="467.5" r="7.5" fill="white"/>
<circle cx="709.5" cy="1667.5" r="7.5" fill="white"/>
<circle cx="1455.5" cy="1274.5" r="7.5" fill="white"/>
<circle cx="1696.5" cy="1395.5" r="7.5" fill="white"/>
<circle cx="208.5" cy="1440.5" r="7.5" fill="white"/>
<circle cx="1495.5" cy="1083.5" r="7.5" fill="white"/>
<circle cx="2241.5" cy="690.5" r="7.5" fill="white"/>
<circle cx="2351.5" cy="3.5" r="7.5" fill="white"/>
<circle cx="863.5" cy="48.5" r="7.5" fill="white"/>
<circle cx="1372.5" cy="1248.5" r="7.5" fill="white"/>
<circle cx="2118.5" cy="855.5" r="7.5" fill="white"/>
<circle cx="1186.5" cy="682.5" r="7.5" fill="white"/>
<circle cx="1695.5" cy="1882.5" r="7.5" fill="white"/>
<circle cx="2441.5" cy="1489.5" r="7.5" fill="white"/>
<circle cx="1022.82" cy="1442.35" r="7.57415" transform="rotate(-105 1022.82 1442.35)" fill="white"/>
<circle cx="2060.98" cy="774.822" r="7.57415" transform="rotate(-105 2060.98 774.822)" fill="white"/>
<circle cx="572.983" cy="819.822" r="7.57415" transform="rotate(-105 572.983 819.822)" fill="white"/>
<circle cx="1827.98" cy="1626.82" r="7.57415" transform="rotate(-105 1827.98 1626.82)" fill="white"/>
<circle cx="1541.83" cy="743.661" r="7.57415" transform="rotate(-105 1541.83 743.661)" fill="white"/>
<circle cx="53.8266" cy="788.661" r="7.57415" transform="rotate(-105 53.8266 788.661)" fill="white"/>
<circle cx="562.827" cy="1988.66" r="7.57415" transform="rotate(-105 562.827 1988.66)" fill="white"/>
<circle cx="1308.83" cy="1595.66" r="7.57415" transform="rotate(-105 1308.83 1595.66)" fill="white"/>
<ellipse cx="1551" cy="357.5" rx="8" ry="7.5" fill="white"/>
<ellipse cx="63" cy="402.5" rx="8" ry="7.5" fill="white"/>
<ellipse cx="572" cy="1602.5" rx="8" ry="7.5" fill="white"/>
<ellipse cx="1318" cy="1209.5" rx="8" ry="7.5" fill="white"/>
<circle cx="1559.5" cy="1330.5" r="7.5" fill="white"/>
<circle cx="71.5" cy="1375.5" r="7.5" fill="white"/>
<circle cx="1358.5" cy="1018.5" r="7.5" fill="white"/>
<circle cx="2104.5" cy="625.5" r="7.5" fill="white"/>
<ellipse cx="1235" cy="1183.5" rx="8" ry="7.5" fill="white"/>
<ellipse cx="1981" cy="790.5" rx="8" ry="7.5" fill="white"/>
<ellipse cx="1049" cy="617.5" rx="8" ry="7.5" fill="white"/>
<ellipse cx="1558" cy="1817.5" rx="8" ry="7.5" fill="white"/>
<ellipse cx="2304" cy="1424.5" rx="8" ry="7.5" fill="white"/>
<ellipse cx="1909" cy="677.5" rx="8" ry="7.5" fill="white"/>
<ellipse cx="421" cy="722.5" rx="8" ry="7.5" fill="white"/>
<ellipse cx="930" cy="1922.5" rx="8" ry="7.5" fill="white"/>
<ellipse cx="1676" cy="1529.5" rx="8" ry="7.5" fill="white"/>
<circle cx="1389.5" cy="646.5" r="7.5" fill="white"/>
<circle cx="410.5" cy="1891.5" r="7.5" fill="white"/>
<circle cx="1156.5" cy="1498.5" r="7.5" fill="white"/>
<circle cx="1964.5" cy="1301.03" r="7.57415" transform="rotate(-105 1964.5 1301.03)" fill="white"/>
<circle cx="476.499" cy="1346.03" r="7.57415" transform="rotate(-105 476.499 1346.03)" fill="white"/>
<circle cx="1498.46" cy="1275.8" r="7.57415" transform="rotate(-105 1498.46 1275.8)" fill="white"/>
<circle cx="10.4601" cy="1320.8" r="7.57415" transform="rotate(-105 10.4601 1320.8)" fill="white"/>
<circle cx="1981.3" cy="312.998" r="7.57415" transform="rotate(-105 1981.3 312.998)" fill="white"/>
<circle cx="493.299" cy="357.998" r="7.57415" transform="rotate(-105 493.299 357.998)" fill="white"/>
<circle cx="1002.3" cy="1558" r="7.57415" transform="rotate(-105 1002.3 1558)" fill="white"/>
<circle cx="1748.3" cy="1165" r="7.57415" transform="rotate(-105 1748.3 1165)" fill="white"/>
<circle cx="2482.44" cy="667.12" r="7.57415" transform="rotate(-105 2482.44 667.12)" fill="white"/>
<circle cx="994.442" cy="712.12" r="7.57415" transform="rotate(-105 994.442 712.12)" fill="white"/>
<circle cx="1503.44" cy="1912.12" r="7.57415" transform="rotate(-105 1503.44 1912.12)" fill="white"/>
<circle cx="2249.44" cy="1519.12" r="7.57415" transform="rotate(-105 2249.44 1519.12)" fill="white"/>
<circle cx="1089.57" cy="1186.98" r="7.57415" transform="rotate(-105 1089.57 1186.98)" fill="white"/>
<circle cx="2344.57" cy="1993.98" r="7.57415" transform="rotate(-105 2344.57 1993.98)" fill="white"/>
<circle cx="2072.17" cy="1075.77" r="7.57415" transform="rotate(-105 2072.17 1075.77)" fill="white"/>
<circle cx="584.17" cy="1120.77" r="7.57415" transform="rotate(-105 584.17 1120.77)" fill="white"/>
<circle cx="1839.17" cy="1927.77" r="7.57415" transform="rotate(-105 1839.17 1927.77)" fill="white"/>
<circle cx="1606.13" cy="1050.54" r="7.57415" transform="rotate(-105 1606.13 1050.54)" fill="white"/>
<circle cx="118.131" cy="1095.54" r="7.57415" transform="rotate(-105 118.131 1095.54)" fill="white"/>
<circle cx="1373.13" cy="1902.54" r="7.57415" transform="rotate(-105 1373.13 1902.54)" fill="white"/>
<circle cx="2088.97" cy="87.7412" r="7.57415" transform="rotate(-105 2088.97 87.7412)" fill="white"/>
<circle cx="600.97" cy="132.741" r="7.57415" transform="rotate(-105 600.97 132.741)" fill="white"/>
<circle cx="1109.97" cy="1332.74" r="7.57415" transform="rotate(-105 1109.97 1332.74)" fill="white"/>
<circle cx="1855.97" cy="939.741" r="7.57415" transform="rotate(-105 1855.97 939.741)" fill="white"/>
<circle cx="1102.11" cy="486.863" r="7.57415" transform="rotate(-105 1102.11 486.863)" fill="white"/>
<circle cx="1611.11" cy="1686.86" r="7.57415" transform="rotate(-105 1611.11 1686.86)" fill="white"/>
<circle cx="2357.11" cy="1293.86" r="7.57415" transform="rotate(-105 2357.11 1293.86)" fill="white"/>
<circle cx="1197.24" cy="961.727" r="7.57415" transform="rotate(-105 1197.24 961.727)" fill="white"/>
<circle cx="2452.24" cy="1768.73" r="7.57415" transform="rotate(-105 2452.24 1768.73)" fill="white"/>
<circle cx="1257.5" cy="290.5" r="7.5" fill="white"/>
<circle cx="278.5" cy="1535.5" r="7.5" fill="white"/>
<circle cx="1024.5" cy="1142.5" r="7.5" fill="white"/>
<circle cx="1615.5" cy="610.5" r="7.5" fill="white"/>
<circle cx="127.5" cy="655.5" r="7.5" fill="white"/>
<circle cx="636.5" cy="1855.5" r="7.5" fill="white"/>
<circle cx="1382.5" cy="1462.5" r="7.5" fill="white"/>
<circle cx="1623.5" cy="1583.5" r="7.5" fill="white"/>
<circle cx="135.5" cy="1628.5" r="7.5" fill="white"/>
<circle cx="2401.5" cy="27.5" r="7.5" fill="white"/>
<circle cx="913.5" cy="72.5" r="7.5" fill="white"/>
<circle cx="1422.5" cy="1272.5" r="7.5" fill="white"/>
<circle cx="2168.5" cy="879.5" r="7.5" fill="white"/>
<ellipse cx="2278.5" cy="192" rx="7.5" ry="8" fill="white"/>
<ellipse cx="790.5" cy="237" rx="7.5" ry="8" fill="white"/>
<ellipse cx="1299.5" cy="1437" rx="7.5" ry="8" fill="white"/>
<ellipse cx="2045.5" cy="1044" rx="7.5" ry="8" fill="white"/>
<circle cx="1113.5" cy="871.5" r="7.5" fill="white"/>
<circle cx="2368.5" cy="1678.5" r="7.5" fill="white"/>
<circle cx="1763.27" cy="968.106" r="7.57415" transform="rotate(-105 1763.27 968.106)" fill="white"/>
<circle cx="275.274" cy="1013.11" r="7.57415" transform="rotate(-105 275.274 1013.11)" fill="white"/>
<circle cx="1530.27" cy="1820.11" r="7.57415" transform="rotate(-105 1530.27 1820.11)" fill="white"/>
<circle cx="1441.5" cy="19.5" r="7.5" fill="white"/>
<circle cx="462.5" cy="1264.5" r="7.5" fill="white"/>
<circle cx="1208.5" cy="871.5" r="7.5" fill="white"/>
<ellipse cx="1799.5" cy="340" rx="7.5" ry="8" fill="white"/>
<ellipse cx="311.5" cy="385" rx="7.5" ry="8" fill="white"/>
<ellipse cx="820.5" cy="1585" rx="7.5" ry="8" fill="white"/>
<ellipse cx="1566.5" cy="1192" rx="7.5" ry="8" fill="white"/>
<circle cx="1975.69" cy="1601.98" r="7.57415" transform="rotate(-105 1975.69 1601.98)" fill="white"/>
<circle cx="487.686" cy="1646.98" r="7.57415" transform="rotate(-105 487.686 1646.98)" fill="white"/>
<circle cx="2438.41" cy="894.37" r="3.60674" transform="rotate(-105 2438.41 894.37)" fill="white"/>
<circle cx="950.408" cy="939.37" r="3.60674" transform="rotate(-105 950.408 939.37)" fill="white"/>
<circle cx="2205.41" cy="1746.37" r="3.60674" transform="rotate(-105 2205.41 1746.37)" fill="white"/>
<circle cx="1255.78" cy="1174.07" r="3.60674" transform="rotate(105 1255.78 1174.07)" fill="white"/>
<circle cx="2069.29" cy="435.159" r="3.60674" transform="rotate(105 2069.29 435.159)" fill="white"/>
<circle cx="581.287" cy="480.159" r="3.60674" transform="rotate(105 581.287 480.159)" fill="white"/>
<circle cx="1090.29" cy="1680.16" r="3.60674" transform="rotate(105 1090.29 1680.16)" fill="white"/>
<circle cx="1836.29" cy="1287.16" r="3.60674" transform="rotate(105 1836.29 1287.16)" fill="white"/>
<circle cx="1550.13" cy="403.997" r="3.60674" transform="rotate(105 1550.13 403.997)" fill="white"/>
<circle cx="62.1301" cy="448.997" r="3.60674" transform="rotate(105 62.1301 448.997)" fill="white"/>
<circle cx="571.13" cy="1649" r="3.60674" transform="rotate(105 571.13 1649)" fill="white"/>
<circle cx="1317.13" cy="1256" r="3.60674" transform="rotate(105 1317.13 1256)" fill="white"/>
<circle cx="1626.32" cy="116.977" r="3.60674" transform="rotate(105 1626.32 116.977)" fill="white"/>
<circle cx="138.316" cy="161.977" r="3.60674" transform="rotate(105 138.316 161.977)" fill="white"/>
<circle cx="647.316" cy="1361.98" r="3.60674" transform="rotate(105 647.316 1361.98)" fill="white"/>
<circle cx="1393.32" cy="968.976" r="3.60674" transform="rotate(105 1393.32 968.976)" fill="white"/>
<circle cx="1794.92" cy="1339.86" r="3.60674" transform="rotate(105 1794.92 1339.86)" fill="white"/>
<circle cx="306.919" cy="1384.86" r="3.60674" transform="rotate(105 306.919 1384.86)" fill="white"/>
<circle cx="2327.29" cy="1310.23" r="3.60674" transform="rotate(-105 2327.29 1310.23)" fill="white"/>
<circle cx="839.294" cy="1355.23" r="3.60674" transform="rotate(-105 839.294 1355.23)" fill="white"/>
<circle cx="2075.76" cy="1377.63" r="3.60674" transform="rotate(-105 2075.76 1377.63)" fill="white"/>
<circle cx="587.761" cy="1422.63" r="3.60674" transform="rotate(-105 587.761 1422.63)" fill="white"/>
<circle cx="2177.53" cy="1498.23" r="3.60674" transform="rotate(-105 2177.53 1498.23)" fill="white"/>
<circle cx="689.527" cy="1543.23" r="3.60674" transform="rotate(-105 689.527 1543.23)" fill="white"/>
<circle cx="2305.2" cy="787.424" r="3.60674" transform="rotate(-105 2305.2 787.424)" fill="white"/>
<circle cx="817.201" cy="832.424" r="3.60674" transform="rotate(-105 817.201 832.424)" fill="white"/>
<circle cx="2072.2" cy="1639.42" r="3.60674" transform="rotate(-105 2072.2 1639.42)" fill="white"/>
<circle cx="1317.66" cy="1333.29" r="3.60674" transform="rotate(105 1317.66 1333.29)" fill="white"/>
<circle cx="2131.18" cy="594.378" r="3.60674" transform="rotate(105 2131.18 594.378)" fill="white"/>
<circle cx="643.175" cy="639.378" r="3.60674" transform="rotate(105 643.175 639.378)" fill="white"/>
<circle cx="1152.17" cy="1839.38" r="3.60674" transform="rotate(105 1152.17 1839.38)" fill="white"/>
<circle cx="1898.17" cy="1446.38" r="3.60674" transform="rotate(105 1898.17 1446.38)" fill="white"/>
<circle cx="1612.02" cy="563.217" r="3.60674" transform="rotate(105 1612.02 563.217)" fill="white"/>
<circle cx="124.018" cy="608.217" r="3.60674" transform="rotate(105 124.018 608.217)" fill="white"/>
<circle cx="633.018" cy="1808.22" r="3.60674" transform="rotate(105 633.018 1808.22)" fill="white"/>
<circle cx="1379.02" cy="1415.22" r="3.60674" transform="rotate(105 1379.02 1415.22)" fill="white"/>
<circle cx="1688.2" cy="276.198" r="3.60674" transform="rotate(105 1688.2 276.198)" fill="white"/>
<circle cx="200.204" cy="321.198" r="3.60674" transform="rotate(105 200.204 321.198)" fill="white"/>
<circle cx="709.204" cy="1521.2" r="3.60674" transform="rotate(105 709.204 1521.2)" fill="white"/>
<circle cx="1455.2" cy="1128.2" r="3.60674" transform="rotate(105 1455.2 1128.2)" fill="white"/>
<circle cx="1856.81" cy="1499.08" r="3.60674" transform="rotate(105 1856.81 1499.08)" fill="white"/>
<circle cx="368.807" cy="1544.08" r="3.60674" transform="rotate(105 368.807 1544.08)" fill="white"/>
<circle cx="2383.39" cy="661.175" r="3.60674" transform="rotate(-105 2383.39 661.175)" fill="white"/>
<circle cx="895.392" cy="706.175" r="3.60674" transform="rotate(-105 895.392 706.175)" fill="white"/>
<circle cx="1404.39" cy="1906.18" r="3.60674" transform="rotate(-105 1404.39 1906.18)" fill="white"/>
<circle cx="2150.39" cy="1513.18" r="3.60674" transform="rotate(-105 2150.39 1513.18)" fill="white"/>
<circle cx="1186.82" cy="1403.53" r="3.60674" transform="rotate(105 1186.82 1403.53)" fill="white"/>
<circle cx="2000.34" cy="664.618" r="3.60674" transform="rotate(105 2000.34 664.618)" fill="white"/>
<circle cx="512.335" cy="709.618" r="3.60674" transform="rotate(105 512.335 709.618)" fill="white"/>
<circle cx="1021.34" cy="1909.62" r="3.60674" transform="rotate(105 1021.34 1909.62)" fill="white"/>
<circle cx="1767.34" cy="1516.62" r="3.60674" transform="rotate(105 1767.34 1516.62)" fill="white"/>
<circle cx="1481.18" cy="633.458" r="3.60674" transform="rotate(105 1481.18 633.458)" fill="white"/>
<circle cx="502.179" cy="1878.46" r="3.60674" transform="rotate(105 502.179 1878.46)" fill="white"/>
<circle cx="1248.18" cy="1485.46" r="3.60674" transform="rotate(105 1248.18 1485.46)" fill="white"/>
<circle cx="1725.97" cy="1569.32" r="3.60674" transform="rotate(105 1725.97 1569.32)" fill="white"/>
<circle cx="237.967" cy="1614.32" r="3.60674" transform="rotate(105 237.967 1614.32)" fill="white"/>
<circle cx="2021.14" cy="856.069" r="3.60674" transform="rotate(-105 2021.14 856.069)" fill="white"/>
<circle cx="533.143" cy="901.069" r="3.60674" transform="rotate(-105 533.143 901.069)" fill="white"/>
<circle cx="1788.14" cy="1708.07" r="3.60674" transform="rotate(-105 1788.14 1708.07)" fill="white"/>
<circle cx="1501.99" cy="824.908" r="3.60674" transform="rotate(-105 1501.99 824.908)" fill="white"/>
<circle cx="13.9861" cy="869.908" r="3.60674" transform="rotate(-105 13.9861 869.908)" fill="white"/>
<circle cx="1268.99" cy="1676.91" r="3.60674" transform="rotate(-105 1268.99 1676.91)" fill="white"/>
<circle cx="1482.5" cy="297.5" r="3.5" fill="white"/>
<circle cx="503.5" cy="1542.5" r="3.5" fill="white"/>
<circle cx="1249.5" cy="1149.5" r="3.5" fill="white"/>
<ellipse cx="1840.5" cy="618" rx="3.5" ry="4" fill="white"/>
<ellipse cx="352.5" cy="663" rx="3.5" ry="4" fill="white"/>
<ellipse cx="861.5" cy="1863" rx="3.5" ry="4" fill="white"/>
<ellipse cx="1607.5" cy="1470" rx="3.5" ry="4" fill="white"/>
<circle cx="1321.5" cy="586.5" r="3.5" fill="white"/>
<circle cx="342.5" cy="1831.5" r="3.5" fill="white"/>
<circle cx="1088.5" cy="1438.5" r="3.5" fill="white"/>
<circle cx="1924.66" cy="1382.27" r="3.60674" transform="rotate(-105 1924.66 1382.27)" fill="white"/>
<circle cx="436.659" cy="1427.27" r="3.60674" transform="rotate(-105 436.659 1427.27)" fill="white"/>
<circle cx="2035.27" cy="894.852" r="3.60674" transform="rotate(-105 2035.27 894.852)" fill="white"/>
<circle cx="547.269" cy="939.852" r="3.60674" transform="rotate(-105 547.269 939.852)" fill="white"/>
<circle cx="1802.27" cy="1746.85" r="3.60674" transform="rotate(-105 1802.27 1746.85)" fill="white"/>
<circle cx="1516.11" cy="863.69" r="3.60674" transform="rotate(-105 1516.11 863.69)" fill="white"/>
<circle cx="28.1119" cy="908.69" r="3.60674" transform="rotate(-105 28.1119 908.69)" fill="white"/>
<circle cx="1283.11" cy="1715.69" r="3.60674" transform="rotate(-105 1283.11 1715.69)" fill="white"/>
<circle cx="1441.5" cy="301.5" r="3.5" fill="white"/>
<circle cx="462.5" cy="1546.5" r="3.5" fill="white"/>
<circle cx="1208.5" cy="1153.5" r="3.5" fill="white"/>
<circle cx="1799.5" cy="621.5" r="3.5" fill="white"/>
<circle cx="311.5" cy="666.5" r="3.5" fill="white"/>
<circle cx="820.5" cy="1866.5" r="3.5" fill="white"/>
<circle cx="1566.5" cy="1473.5" r="3.5" fill="white"/>
<circle cx="1698.35" cy="21.642" r="5" transform="rotate(105 1698.35 21.642)" fill="white"/>
<circle cx="1938.78" cy="1421.06" r="3.60674" transform="rotate(-105 1938.78 1421.06)" fill="white"/>
<circle cx="450.784" cy="1466.06" r="3.60674" transform="rotate(-105 450.784 1466.06)" fill="white"/>
<circle cx="2076.6" cy="876.309" r="3.60674" transform="rotate(-105 2076.6 876.309)" fill="white"/>
<circle cx="588.601" cy="921.309" r="3.60674" transform="rotate(-105 588.601 921.309)" fill="white"/>
<circle cx="1843.6" cy="1728.31" r="3.60674" transform="rotate(-105 1843.6 1728.31)" fill="white"/>
<circle cx="1557.44" cy="845.148" r="3.60674" transform="rotate(-105 1557.44 845.148)" fill="white"/>
<circle cx="69.4445" cy="890.148" r="3.60674" transform="rotate(-105 69.4445 890.148)" fill="white"/>
<circle cx="1324.44" cy="1697.15" r="3.60674" transform="rotate(-105 1324.44 1697.15)" fill="white"/>
<circle cx="1449" cy="346" r="4" fill="white"/>
<circle cx="470" cy="1591" r="4" fill="white"/>
<circle cx="1216" cy="1198" r="4" fill="white"/>
<ellipse cx="1807" cy="666.5" rx="4" ry="3.5" fill="white"/>
<ellipse cx="319" cy="711.5" rx="4" ry="3.5" fill="white"/>
<ellipse cx="828" cy="1911.5" rx="4" ry="3.5" fill="white"/>
<ellipse cx="1574" cy="1518.5" rx="4" ry="3.5" fill="white"/>
<circle cx="1635.87" cy="15.2553" r="5" transform="rotate(105 1635.87 15.2553)" fill="white"/>
<circle cx="1980.12" cy="1402.51" r="3.60674" transform="rotate(-105 1980.12 1402.51)" fill="white"/>
<circle cx="492.117" cy="1447.51" r="3.60674" transform="rotate(-105 492.117 1447.51)" fill="white"/>
</g>
<defs>
<clipPath id="clip0">
<rect width="2500" height="2000" fill="white"/>
</clipPath>
</defs>
</svg>
